<?xml version="1.0" encoding="UTF-8" standalone="no"?>
<!-- Created with Inkscape (http://www.inkscape.org/) -->

<svg
   width="245.3284mm"
   height="80.682701mm"
   viewBox="0 0 245.3284 80.682701"
   version="1.1"
   id="svg1973"
   inkscape:version="1.2.2 (b0a8486541, 2022-12-01)"
   sodipodi:docname="craccken-logo-and-text.svg"
   inkscape:export-filename="craccken-logo-and-text.png"
   inkscape:export-xdpi="96"
   inkscape:export-ydpi="96"
   xmlns:inkscape="http://www.inkscape.org/namespaces/inkscape"
   xmlns:sodipodi="http://sodipodi.sourceforge.net/DTD/sodipodi-0.dtd"
   xmlns="http://www.w3.org/2000/svg"
   xmlns:svg="http://www.w3.org/2000/svg">
  <sodipodi:namedview
     id="namedview1975"
     pagecolor="#0d1117"
     bordercolor="#eeeeee"
     borderopacity="1"
     inkscape:showpageshadow="0"
     inkscape:pageopacity="0"
     inkscape:pagecheckerboard="false"
     inkscape:deskcolor="#0d1117"
     inkscape:document-units="mm"
     showgrid="false"
     inkscape:zoom="0.66368547"
     inkscape:cx="504.0038"
     inkscape:cy="413.59953"
     inkscape:window-width="1870"
     inkscape:window-height="1080"
     inkscape:window-x="0"
     inkscape:window-y="0"
     inkscape:window-maximized="1"
     inkscape:current-layer="g8742" />
  <defs
     id="defs1970">
    <rect
       x="1004.7539"
       y="380.43359"
       width="500.625"
       height="145.43359"
       id="rect32609" />
    <rect
       x="802.82031"
       y="624.39185"
       width="774.54156"
       height="44.354378"
       id="rect1412" />
  </defs>
  <g
     inkscape:label="Layer 1"
     inkscape:groupmode="layer"
     id="layer1">
    <g
       id="g8742"
       transform="translate(-134.27575,-100.84725)"
       style="opacity:0.2">
      <g
         id="g7084">
        <path
           id="path836"
           style="fill:#f5f5f5;fill-opacity:1;stroke:none;stroke-width:0.251066px;stroke-linecap:butt;stroke-linejoin:miter;stroke-opacity:1"
           d="m 143.87361,125.42754 -0.83258,0.78317 -0.007,4.98268 2.51972,2.51727 -0.007,35.68788 -1.25227,2.06382 V 134.9693 l -2.50455,-2.51679 v 36.49305 4.37662 l 0.52635,0.65695 h 8.23956 v -14.92458 l 1.25228,-1.43425 v 17.61746 h -10.54406 l -0.72641,-0.87317 v -42.66735 l -1.25228,-1.25815 v 44.79867 3.31314 l 0.5107,0.46178 h 17.02115 l -2.50455,-3.77492 V 157.6203 l 2.50455,2.51678 v 15.10068 l 3.00545,5.03355 H 138.9845 l -0.95192,-0.87903 v -49.45654 l -3.75683,-3.77591 v 7.61931 l 1.12361,2.01587 v 30.83727 l -1.12361,5.53251 v 8.26991 l 1.25227,1.09525 h 26.29778 l -3.75684,-6.29219 v -15.10068 h 0.95193 l 0.30035,0.90692 v 14.19376 l 3.00546,5.03355 v -5.03355 -6.2922 -7.5743 l 0.27589,-1.23418 h 0.95144 l 0.2754,1.23418 v 7.5743 6.2922 5.03355 l 3.00594,-5.03355 V 161.044 l 0.30035,-0.90692 h 0.95193 v 15.10068 l -3.75731,6.29219 h 26.29826 l 1.25228,-1.09525 V 172.11 l -1.10356,-5.51 v -30.80548 l 1.10356,-2.00363 v -7.63106 l -3.75684,3.77591 v 49.45654 l -0.95194,0.87903 h -20.83814 l 3.00595,-5.03355 v -15.10068 l 2.50455,-2.51678 v 17.61746 l -2.50455,3.77492 h 17.02116 l 0.51069,-0.46178 v -3.31314 -44.79867 l -1.25228,1.25815 v 42.66735 l -0.72641,0.87317 H 174.349 V 157.6203 l 1.25228,1.43425 v 14.92458 h 8.23958 l 0.52635,-0.65695 v -4.37662 -36.49305 l -2.50456,2.51679 v 36.49306 l -1.25226,-2.06382 -0.007,-35.68788 2.51972,-2.51727 -0.007,-4.98268 -0.83257,-0.78317 -9.77802,7.03182 -0.24116,11.59138 -2.99028,5.72132 v 6.30785 h -0.50093 v -6.44334 l 2.99031,-5.83629 0.24115,-10.98088 -3.26422,2.34752 -3.25886,2.40573 h -4.80413 l -3.25885,-2.40573 -3.26424,-2.34752 0.24116,10.98088 2.9903,5.83629 v 6.44334 h -0.50091 v -6.30785 l -2.99029,-5.72132 -0.24116,-11.59138 z m 19.22975,15.36728 c 0.44606,-1.2e-4 0.80772,0.36153 0.80762,0.80762 -1.6e-4,0.44589 -0.36175,0.80725 -0.80762,0.80713 -0.4457,-1.7e-4 -0.80697,-0.36143 -0.80713,-0.80713 -1e-4,-0.4459 0.36124,-0.80745 0.80713,-0.80762 z m -2.80637,2.755 a 0.8074271,0.80742709 0 0 1 0.80713,0.80762 0.8074271,0.80742709 0 0 1 -0.80713,0.80713 0.8074271,0.80742709 0 0 1 -0.80762,-0.80713 0.8074271,0.80742709 0 0 1 0.80762,-0.80762 z m 5.56137,0 a 0.8074271,0.80742709 0 0 1 0.80762,0.80762 0.8074271,0.80742709 0 0 1 -0.80762,0.80713 0.8074271,0.80742709 0 0 1 -0.80714,-0.80713 0.8074271,0.80742709 0 0 1 0.80714,-0.80762 z" />
        <path
           id="path33961"
           style="fill:#f5f5f5;fill-opacity:1;stroke:none;stroke-width:0.250456px;stroke-linecap:butt;stroke-linejoin:miter;stroke-opacity:1"
           d="m 162.59267,100.84725 -7.56111,3.92657 -0.0504,7.97005 -1.75318,-3.50638 -0.25046,-3.45451 -13.68502,7.32727 v 13.77501 l 2.49673,2.50456 0.007,-8.26501 8.6764,5.69051 v -0.0449 -5.44495 l -3.47409,-6.20464 -0.12376,-0.21815 0.43782,-0.24606 0.1223,0.21816 3.53865,6.31959 v 5.57605 0.24947 h -0.18932 l 9.78585,6.4184 2.00609,-0.87611 z m 0.98616,0 0.0156,31.71484 2.00609,0.8761 9.78584,-6.41839 h -0.18882 v -0.24949 -5.57604 l 3.53866,-6.31763 0.12229,-0.21817 0.43635,0.2441 -0.1223,0.21817 -3.47556,6.20462 v 5.44495 0.046 l 8.67739,-5.69147 0.007,8.26501 2.49672,-2.50456 v -13.77506 l -13.68502,-7.37913 -0.25045,3.50637 -1.75318,3.50638 -0.0504,-7.97005 z m 20.85673,12.59808 a 0.77949222,0.7794922 0 0 1 0.77926,0.77924 0.77949222,0.7794922 0 0 1 -0.77926,0.77975 0.77949222,0.7794922 0 0 1 -0.77973,-0.77975 0.77949222,0.7794922 0 0 1 0.77973,-0.77924 z m 0,4.06354 a 0.77949222,0.7794922 0 0 1 0.77926,0.77924 0.77949222,0.7794922 0 0 1 -0.77926,0.77974 0.77949222,0.7794922 0 0 1 -0.77973,-0.77974 0.77949222,0.7794922 0 0 1 0.77973,-0.77924 z" />
      </g>
      <text
         xml:space="preserve"
         transform="matrix(0.69252296,0,0,0.69252296,-491.53524,-150.52959)"
         id="text32607"
         style="font-style:normal;font-variant:normal;font-weight:normal;font-stretch:normal;font-size:61.058px;line-height:1.25;font-family:'Bebas Kai';-inkscape-font-specification:'Bebas Kai';letter-spacing:3.82057px;white-space:pre;shape-inside:url(#rect32609);display:inline;opacity:1;fill:#f5f5f5;fill-opacity:1"><tspan
           x="1004.7539"
           y="438.94751"
           id="tspan2903"><tspan
             style="font-weight:bold;font-family:Suboleya;-inkscape-font-specification:'Suboleya Bold'"
             id="tspan2901">Craccken</tspan></tspan></text>
      <text
         xml:space="preserve"
         transform="matrix(0.26458333,0,0,0.26458333,-4.473112,-4.7625003)"
         id="text1410"
         style="font-size:26.6667px;line-height:1.25;font-family:sans-serif;letter-spacing:7px;white-space:pre;shape-inside:url(#rect1412);display:inline;fill:#f5f5f5;fill-opacity:1"><tspan
           x="802.82031"
           y="648.90177"
           id="tspan2907"><tspan
             style="font-family:Montserrat;-inkscape-font-specification:Montserrat"
             id="tspan2905">Futuristic like Operating System</tspan></tspan></text>
    </g>
  </g>
</svg>
