<?xml version="1.0" encoding="UTF-8" standalone="no"?>
<svg
   width="354.65399"
   height="361.965"
   viewBox="0 0 93.835052 95.769407"
   version="1.1"
   id="svg8"
   inkscape:version="1.2.1 (9c6d41e410, 2022-07-14, custom)"
   sodipodi:docname="craccken-logo-red.svg"
   inkscape:export-filename="craccken-logo-red.png"
   inkscape:export-xdpi="83.737061"
   inkscape:export-ydpi="83.737061"
   xml:space="preserve"
   xmlns:inkscape="http://www.inkscape.org/namespaces/inkscape"
   xmlns:sodipodi="http://sodipodi.sourceforge.net/DTD/sodipodi-0.dtd"
   xmlns="http://www.w3.org/2000/svg"
   xmlns:svg="http://www.w3.org/2000/svg"
   xmlns:rdf="http://www.w3.org/1999/02/22-rdf-syntax-ns#"
   xmlns:cc="http://creativecommons.org/ns#"
   xmlns:dc="http://purl.org/dc/elements/1.1/"><title
     id="title139">craccken-logo-red</title><defs
     id="defs2" /><sodipodi:namedview
     id="base"
     pagecolor="#0d1117"
     bordercolor="#666666"
     borderopacity="1.0"
     inkscape:pageopacity="0"
     inkscape:pageshadow="2"
     inkscape:zoom="1.4142136"
     inkscape:cx="66.821589"
     inkscape:cy="113.49064"
     inkscape:document-units="px"
     inkscape:current-layer="layer1"
     inkscape:document-rotation="0"
     showgrid="true"
     inkscape:window-width="919"
     inkscape:window-height="1062"
     inkscape:window-x="0"
     inkscape:window-y="0"
     inkscape:window-maximized="1"
     fit-margin-bottom="3"
     fit-margin-right="3"
     fit-margin-top="3"
     fit-margin-left="3"
     inkscape:pagecheckerboard="false"
     inkscape:showpageshadow="false"
     inkscape:deskcolor="#0d1117"
     shape-rendering="auto" /><metadata
     id="metadata5"><rdf:RDF><cc:Work
         rdf:about=""><dc:title>craccken-logo-red</dc:title></cc:Work></rdf:RDF></metadata><g
     inkscape:label="Layer 1"
     inkscape:groupmode="layer"
     id="layer1"
     transform="translate(418.04164,-70.388912)"><path
       style="fill:none;stroke:none;stroke-width:0.264583px;stroke-linecap:butt;stroke-linejoin:miter;stroke-opacity:1"
       d="m -294.82142,93.738093 186.72023,94.494047 -239.6369,30.2381 z"
       id="path833" /><path
       id="path836"
       style="opacity:1;fill:#ff0002;fill-opacity:1;stroke:none;stroke-width:0.265228px;stroke-linecap:butt;stroke-linejoin:miter;stroke-opacity:1"
       d="M -391.41136 100.98585 L -392.29089 101.81319 L -392.29916 107.07692 L -389.63732 109.73618 L -389.64507 147.43704 L -390.96798 149.61726 L -390.96798 111.06581 L -393.6138 108.40707 L -393.6138 146.95852 L -393.6138 151.58199 L -393.05776 152.276 L -384.35343 152.276 L -384.35343 136.5096 L -383.03052 134.99445 L -383.03052 153.60562 L -394.16932 153.60562 L -394.93671 152.6832 L -394.93671 107.60919 L -396.25962 106.28008 L -396.25962 153.60562 L -396.25962 157.10565 L -395.72012 157.59347 L -377.73888 157.59347 L -380.3847 153.60562 L -380.3847 134.99445 L -377.73888 137.65319 L -377.73888 153.60562 L -374.5639 158.9231 L -396.57691 158.9231 L -397.58253 157.99448 L -397.58253 105.74833 L -401.55126 101.75944 L -401.55126 109.80852 L -400.36426 111.9381 L -400.36426 144.51475 L -401.55126 150.35933 L -401.55126 159.0957 L -400.22835 160.25273 L -372.44724 160.25273 L -376.41597 153.60562 L -376.41597 137.65319 L -375.41035 137.65319 L -375.09306 138.61127 L -375.09306 153.60562 L -371.91808 158.9231 L -371.91808 153.60562 L -371.91808 146.95852 L -371.91808 138.95698 L -371.62663 137.65319 L -370.62152 137.65319 L -370.33059 138.95698 L -370.33059 146.95852 L -370.33059 153.60562 L -370.33059 158.9231 L -367.15509 153.60562 L -367.15509 138.61127 L -366.8378 137.65319 L -365.83218 137.65319 L -365.83218 153.60562 L -369.80142 160.25273 L -342.0198 160.25273 L -340.69689 159.0957 L -340.69689 150.30145 L -341.8627 144.48065 L -341.8627 111.93758 L -340.69689 109.82093 L -340.69689 101.75944 L -344.66562 105.74833 L -344.66562 157.99448 L -345.67124 158.9231 L -367.68477 158.9231 L -364.50927 153.60562 L -364.50927 137.65319 L -361.86345 134.99445 L -361.86345 153.60562 L -364.50927 157.59347 L -346.52803 157.59347 L -345.98853 157.10565 L -345.98853 153.60562 L -345.98853 106.28008 L -347.31144 107.60919 L -347.31144 152.6832 L -348.07883 153.60562 L -359.21763 153.60562 L -359.21763 134.99445 L -357.89472 136.5096 L -357.89472 152.276 L -349.19039 152.276 L -348.63435 151.58199 L -348.63435 146.95852 L -348.63435 108.40707 L -351.28017 111.06581 L -351.28017 149.61726 L -352.60308 147.43704 L -352.61135 109.73618 L -349.94951 107.07692 L -349.95726 101.81319 L -350.83679 100.98585 L -361.16634 108.4143 L -361.4211 120.65949 L -364.58006 126.70353 L -364.58006 133.36717 L -365.10923 133.36717 L -365.10923 126.56039 L -361.95026 120.3949 L -361.6955 108.79464 L -365.14385 111.27458 L -368.58652 113.81601 L -373.66163 113.81601 L -377.1043 111.27458 L -380.55265 108.79464 L -380.29789 120.3949 L -377.13892 126.56039 L -377.13892 133.36717 L -377.66809 133.36717 L -377.66809 126.70353 L -380.82705 120.65949 L -381.08181 108.4143 L -391.41136 100.98585 z M -371.09694 117.21992 C -370.62572 117.2198 -370.24366 117.60185 -370.24377 118.07309 C -370.24394 118.54413 -370.62592 118.92587 -371.09694 118.92575 C -371.56778 118.92557 -371.94943 118.54393 -371.9496 118.07309 C -371.94971 117.60205 -371.56798 117.2201 -371.09694 117.21992 z M -374.06161 120.13032 A 0.85297024 0.85297024 0 0 1 -373.20895 120.98349 A 0.85297024 0.85297024 0 0 1 -374.06161 121.83615 A 0.85297024 0.85297024 0 0 1 -374.91478 120.98349 A 0.85297024 0.85297024 0 0 1 -374.06161 120.13032 z M -368.18654 120.13032 A 0.85297024 0.85297024 0 0 1 -367.33337 120.98349 A 0.85297024 0.85297024 0 0 1 -368.18654 121.83615 A 0.85297024 0.85297024 0 0 1 -369.0392 120.98349 A 0.85297024 0.85297024 0 0 1 -368.18654 120.13032 z " /><path
       id="path33961"
       style="opacity:1;fill:#ff0002;fill-opacity:1;stroke:none;stroke-width:0.264583px;stroke-linecap:butt;stroke-linejoin:miter;stroke-opacity:1"
       d="m -371.63644,75.019096 -7.98759,4.148046 -0.0532,8.419598 -1.85207,-3.704148 -0.26458,-3.649371 -14.45692,7.740573 V 102.5258 l 2.63755,2.64582 0.008,-8.731203 9.16581,6.011483 v -0.0475 -5.752071 l -3.67005,-6.554604 -0.13074,-0.230476 0.46251,-0.259931 0.12919,0.230475 3.73825,6.676044 v 5.890563 0.26355 h -0.19999 l 10.33782,6.78043 2.11924,-0.92552 z m 1.04179,0 0.0165,33.503724 2.11924,0.92552 10.33782,-6.78043 h -0.19947 v -0.26355 -5.890563 l 3.73825,-6.673977 0.12919,-0.230475 0.46096,0.257864 -0.12919,0.230476 -3.6716,6.554604 v 5.752071 0.0486 l 9.16684,-6.012513 0.008,8.731203 2.63755,-2.64582 V 87.973794 l -14.45693,-7.795349 -0.26458,3.704147 -1.85207,3.704148 -0.0532,-8.419598 z m 22.03316,13.30868 a 0.82345968,0.82345968 0 0 1 0.82321,0.823201 0.82345968,0.82345968 0 0 1 -0.82321,0.823718 0.82345968,0.82345968 0 0 1 -0.82371,-0.823718 0.82345968,0.82345968 0 0 1 0.82371,-0.823201 z m 0,4.292739 a 0.82345968,0.82345968 0 0 1 0.82321,0.823201 0.82345968,0.82345968 0 0 1 -0.82321,0.823718 0.82345968,0.82345968 0 0 1 -0.82371,-0.823718 0.82345968,0.82345968 0 0 1 0.82371,-0.823201 z" /></g></svg>
